{
    "asset" : {
        "generator" : "Khronos glTF Blender I/O v1.7.33",
        "version" : "2.0"
    },
    "scene" : 0,
    "scenes" : [
        {
            "name" : "Scene",
            "nodes" : [
                0
            ]
        }
    ],
    "nodes" : [
        {
            "mesh" : 0,
            "name" : "Base_LOD1",
            "rotation" : [
                -0.7071068286895752,
                0,
                0,
                0.7071067094802856
            ],
            "translation" : [
                -11.574225425720215,
                0,
                -10.337401390075684
            ]
        }
    ],
    "materials" : [
        {
            "name" : "03 - Default",
            "normalTexture" : {
                "index" : 0
            },
            "pbrMetallicRoughness" : {
                "baseColorTexture" : {
                    "index" : 1
                },
                "metallicFactor" : 0.6377953290939331,
                "roughnessFactor" : 0.49637389183044434
            }
        },
        {
            "doubleSided" : true,
            "name" : "02 - Default",
            "pbrMetallicRoughness" : {
                "baseColorTexture" : {
                    "index" : 2
                },
                "metallicFactor" : 0.82677161693573
            }
        },
        {
            "doubleSided" : true,
            "name" : "01 - Default",
            "pbrMetallicRoughness" : {
                "baseColorTexture" : {
                    "index" : 3
                },
                "metallicFactor" : 0.590950608253479,
                "roughnessFactor" : 0.8251626491546631
            }
        },
        {
            "name" : "rail",
            "pbrMetallicRoughness" : {
                "baseColorFactor" : [
                    0.7105523347854614,
                    0.7105523347854614,
                    0.7105523347854614,
                    1
                ],
                "metallicFactor" : 0.874015748500824,
                "roughnessFactor" : 0.02755904197692871
            }
        },
        {
            "doubleSided" : true,
            "name" : "hand_rail",
            "pbrMetallicRoughness" : {
                "baseColorFactor" : [
                    0.8000000715255737,
                    0.4700477421283722,
                    0.18784946203231812,
                    1
                ],
                "metallicFactor" : 0.9001968502998352,
                "roughnessFactor" : 0.0669291615486145
            }
        },
        {
            "name" : "Floor_Metal",
            "pbrMetallicRoughness" : {
                "baseColorTexture" : {
                    "index" : 4
                },
                "metallicFactor" : 0,
                "roughnessFactor" : 0.771335244178772
            }
        },
        {
            "emissiveFactor" : [
                0.5704504251480103,
                0.5704504251480103,
                0.5704504251480103
            ],
            "name" : "light",
            "pbrMetallicRoughness" : {
                "baseColorTexture" : {
                    "index" : 5
                },
                "metallicFactor" : 0,
                "roughnessFactor" : 0.15000000596046448
            }
        },
        {
            "name" : "material",
            "pbrMetallicRoughness" : {
                "baseColorTexture" : {
                    "index" : 6
                },
                "metallicFactor" : 0.617996096611023,
                "roughnessFactor" : 0.6579710245132446
            }
        },
        {
            "name" : "pipe",
            "pbrMetallicRoughness" : {
                "baseColorFactor" : [
                    0.10653398185968399,
                    0.10653398185968399,
                    0.10653398185968399,
                    1
                ],
                "metallicFactor" : 0.9119678735733032,
                "roughnessFactor" : 0.3878209590911865
            }
        },
        {
            "name" : "Material",
            "pbrMetallicRoughness" : {
                "baseColorFactor" : [
                    0.800000011920929,
                    0.800000011920929,
                    0.800000011920929,
                    1
                ],
                "metallicFactor" : 0.5249999761581421,
                "roughnessFactor" : 0.4000000059604645
            }
        },
        {
            "name" : "phong1",
            "pbrMetallicRoughness" : {
                "baseColorTexture" : {
                    "index" : 7
                },
                "metallicFactor" : 0.699999988079071,
                "roughnessFactor" : 0.6401282548904419
            }
        }
    ],
    "meshes" : [
        {
            "name" : "Base_LOD1",
            "primitives" : [
                {
                    "attributes" : {
                        "POSITION" : 0,
                        "NORMAL" : 1,
                        "TEXCOORD_0" : 2
                    },
                    "indices" : 3,
                    "material" : 0
                },
                {
                    "attributes" : {
                        "POSITION" : 4,
                        "NORMAL" : 5,
                        "TEXCOORD_0" : 6
                    },
                    "indices" : 7,
                    "material" : 1
                },
                {
                    "attributes" : {
                        "POSITION" : 8,
                        "NORMAL" : 9,
                        "TEXCOORD_0" : 10
                    },
                    "indices" : 11,
                    "material" : 2
                },
                {
                    "attributes" : {
                        "POSITION" : 12,
                        "NORMAL" : 13,
                        "TEXCOORD_0" : 14
                    },
                    "indices" : 15,
                    "material" : 3
                },
                {
                    "attributes" : {
                        "POSITION" : 16,
                        "NORMAL" : 17,
                        "TEXCOORD_0" : 18
                    },
                    "indices" : 19,
                    "material" : 4
                },
                {
                    "attributes" : {
                        "POSITION" : 20,
                        "NORMAL" : 21,
                        "TEXCOORD_0" : 22
                    },
                    "indices" : 23,
                    "material" : 5
                },
                {
                    "attributes" : {
                        "POSITION" : 24,
                        "NORMAL" : 25,
                        "TEXCOORD_0" : 26
                    },
                    "indices" : 27,
                    "material" : 6
                },
                {
                    "attributes" : {
                        "POSITION" : 28,
                        "NORMAL" : 29,
                        "TEXCOORD_0" : 30
                    },
                    "indices" : 31,
                    "material" : 7
                },
                {
                    "attributes" : {
                        "POSITION" : 32,
                        "NORMAL" : 33,
                        "TEXCOORD_0" : 34
                    },
                    "indices" : 35,
                    "material" : 8
                },
                {
                    "attributes" : {
                        "POSITION" : 36,
                        "NORMAL" : 37,
                        "TEXCOORD_0" : 38
                    },
                    "indices" : 39,
                    "material" : 9
                },
                {
                    "attributes" : {
                        "POSITION" : 40,
                        "NORMAL" : 41,
                        "TEXCOORD_0" : 42
                    },
                    "indices" : 43,
                    "material" : 10
                }
            ]
        }
    ],
    "textures" : [
        {
            "sampler" : 0,
            "source" : 0
        },
        {
            "sampler" : 0,
            "source" : 1
        },
        {
            "sampler" : 0,
            "source" : 2
        },
        {
            "sampler" : 0,
            "source" : 3
        },
        {
            "sampler" : 0,
            "source" : 4
        },
        {
            "sampler" : 0,
            "source" : 5
        },
        {
            "sampler" : 0,
            "source" : 5
        },
        {
            "sampler" : 0,
            "source" : 6
        }
    ],
    "images" : [
        {
            "mimeType" : "image/png",
            "name" : "MetalSciFiDiamondFloor_height",
            "uri" : "MetalSciFiDiamondFloor_height.png"
        },
        {
            "mimeType" : "image/png",
            "name" : "MetalSciFiDiamondFloor_albedo",
            "uri" : "MetalSciFiDiamondFloor_albedo.png"
        },
        {
            "mimeType" : "image/png",
            "name" : "PolishedAluminiumSheetMetalStained_glossiness",
            "uri" : "PolishedAluminiumSheetMetalStained_glossiness.png"
        },
        {
            "mimeType" : "image/png",
            "name" : "AdvancedFloorModularWhite_albedo",
            "uri" : "AdvancedFloorModularWhite_albedo.png"
        },
        {
            "mimeType" : "image/jpeg",
            "name" : "Image_3",
            "uri" : "Image_3.jpg"
        },
        {
            "mimeType" : "image/png",
            "name" : "whitepixel",
            "uri" : "whitepixel.png"
        },
        {
            "mimeType" : "image/jpeg",
            "name" : "phong1_baseColor",
            "uri" : "phong1_baseColor.jpg"
        }
    ],
    "accessors" : [
        {
            "bufferView" : 0,
            "componentType" : 5126,
            "count" : 3962,
            "max" : [
                15.357952117919922,
                12.371603965759277,
                8.601354598999023
            ],
            "min" : [
                -10.5423002243042,
                -19.501293182373047,
                -2.5699398517608643
            ],
            "type" : "VEC3"
        },
        {
            "bufferView" : 1,
            "componentType" : 5126,
            "count" : 3962,
            "type" : "VEC3"
        },
        {
            "bufferView" : 2,
            "componentType" : 5126,
            "count" : 3962,
            "type" : "VEC2"
        },
        {
            "bufferView" : 3,
            "componentType" : 5123,
            "count" : 7782,
            "type" : "SCALAR"
        },
        {
            "bufferView" : 4,
            "componentType" : 5126,
            "count" : 243,
            "max" : [
                15.474696159362793,
                12.532390594482422,
                4.319572925567627
            ],
            "min" : [
                -12.377647399902344,
                -19.501293182373047,
                -2.5699398517608643
            ],
            "type" : "VEC3"
        },
        {
            "bufferView" : 5,
            "componentType" : 5126,
            "count" : 243,
            "type" : "VEC3"
        },
        {
            "bufferView" : 6,
            "componentType" : 5126,
            "count" : 243,
            "type" : "VEC2"
        },
        {
            "bufferView" : 7,
            "componentType" : 5123,
            "count" : 468,
            "type" : "SCALAR"
        },
        {
            "bufferView" : 8,
            "componentType" : 5126,
            "count" : 2119,
            "max" : [
                15.094137191772461,
                12.15046501159668,
                8.819297790527344
            ],
            "min" : [
                -11.997089385986328,
                -14.553900718688965,
                -0.013856034725904465
            ],
            "type" : "VEC3"
        },
        {
            "bufferView" : 9,
            "componentType" : 5126,
            "count" : 2119,
            "type" : "VEC3"
        },
        {
            "bufferView" : 10,
            "componentType" : 5126,
            "count" : 2119,
            "type" : "VEC2"
        },
        {
            "bufferView" : 11,
            "componentType" : 5123,
            "count" : 2328,
            "type" : "SCALAR"
        },
        {
            "bufferView" : 12,
            "componentType" : 5126,
            "count" : 3810,
            "max" : [
                13.517906188964844,
                9.175700187683105,
                14.924694061279297
            ],
            "min" : [
                -9.368306159973145,
                -19.474512100219727,
                -0.01700579561293125
            ],
            "type" : "VEC3"
        },
        {
            "bufferView" : 13,
            "componentType" : 5126,
            "count" : 3810,
            "type" : "VEC3"
        },
        {
            "bufferView" : 14,
            "componentType" : 5126,
            "count" : 3810,
            "type" : "VEC2"
        },
        {
            "bufferView" : 15,
            "componentType" : 5123,
            "count" : 5616,
            "type" : "SCALAR"
        },
        {
            "bufferView" : 16,
            "componentType" : 5126,
            "count" : 60,
            "max" : [
                13.475439071655273,
                -12.928110122680664,
                1.34365975856781
            ],
            "min" : [
                2.465022087097168,
                -19.407978057861328,
                1.2688654661178589
            ],
            "type" : "VEC3"
        },
        {
            "bufferView" : 17,
            "componentType" : 5126,
            "count" : 60,
            "type" : "VEC3"
        },
        {
            "bufferView" : 18,
            "componentType" : 5126,
            "count" : 60,
            "type" : "VEC2"
        },
        {
            "bufferView" : 19,
            "componentType" : 5123,
            "count" : 72,
            "type" : "SCALAR"
        },
        {
            "bufferView" : 20,
            "componentType" : 5126,
            "count" : 240,
            "max" : [
                13.242976188659668,
                6.9218926429748535,
                8.76705551147461
            ],
            "min" : [
                4.08833646774292,
                -11.319101333618164,
                8.41606330871582
            ],
            "type" : "VEC3"
        },
        {
            "bufferView" : 21,
            "componentType" : 5126,
            "count" : 240,
            "type" : "VEC3"
        },
        {
            "bufferView" : 22,
            "componentType" : 5126,
            "count" : 240,
            "type" : "VEC2"
        },
        {
            "bufferView" : 23,
            "componentType" : 5123,
            "count" : 252,
            "type" : "SCALAR"
        },
        {
            "bufferView" : 24,
            "componentType" : 5126,
            "count" : 440,
            "max" : [
                8.390271186828613,
                12.468798637390137,
                8.632893562316895
            ],
            "min" : [
                -8.433135032653809,
                -13.298928260803223,
                3.7412147521972656
            ],
            "type" : "VEC3"
        },
        {
            "bufferView" : 25,
            "componentType" : 5126,
            "count" : 440,
            "type" : "VEC3"
        },
        {
            "bufferView" : 26,
            "componentType" : 5126,
            "count" : 440,
            "type" : "VEC2"
        },
        {
            "bufferView" : 27,
            "componentType" : 5123,
            "count" : 900,
            "type" : "SCALAR"
        },
        {
            "bufferView" : 28,
            "componentType" : 5126,
            "count" : 240,
            "max" : [
                13.847713470458984,
                7.595370292663574,
                14.954852104187012
            ],
            "min" : [
                7.304925441741943,
                0.7158865928649902,
                8.589076042175293
            ],
            "type" : "VEC3"
        },
        {
            "bufferView" : 29,
            "componentType" : 5126,
            "count" : 240,
            "type" : "VEC3"
        },
        {
            "bufferView" : 30,
            "componentType" : 5126,
            "count" : 240,
            "type" : "VEC2"
        },
        {
            "bufferView" : 31,
            "componentType" : 5123,
            "count" : 240,
            "type" : "SCALAR"
        },
        {
            "bufferView" : 32,
            "componentType" : 5126,
            "count" : 9432,
            "max" : [
                15.393446922302246,
                12.530753135681152,
                14.963451385498047
            ],
            "min" : [
                -10.391500473022461,
                -13.362184524536133,
                -0.48672187328338623
            ],
            "type" : "VEC3"
        },
        {
            "bufferView" : 33,
            "componentType" : 5126,
            "count" : 9432,
            "type" : "VEC3"
        },
        {
            "bufferView" : 34,
            "componentType" : 5126,
            "count" : 9432,
            "type" : "VEC2"
        },
        {
            "bufferView" : 35,
            "componentType" : 5123,
            "count" : 17430,
            "type" : "SCALAR"
        },
        {
            "bufferView" : 36,
            "componentType" : 5126,
            "count" : 3259,
            "max" : [
                0.6612198352813721,
                -7.027679443359375,
                9.985655784606934
            ],
            "min" : [
                -3.2043325901031494,
                -10.878355979919434,
                6.199174880981445
            ],
            "type" : "VEC3"
        },
        {
            "bufferView" : 37,
            "componentType" : 5126,
            "count" : 3259,
            "type" : "VEC3"
        },
        {
            "bufferView" : 38,
            "componentType" : 5126,
            "count" : 3259,
            "type" : "VEC2"
        },
        {
            "bufferView" : 39,
            "componentType" : 5123,
            "count" : 3264,
            "type" : "SCALAR"
        },
        {
            "bufferView" : 40,
            "componentType" : 5126,
            "count" : 388,
            "max" : [
                15.467318534851074,
                12.49405288696289,
                6.304332733154297
            ],
            "min" : [
                -10.47103500366211,
                -13.374979972839355,
                0.39343875646591187
            ],
            "type" : "VEC3"
        },
        {
            "bufferView" : 41,
            "componentType" : 5126,
            "count" : 388,
            "type" : "VEC3"
        },
        {
            "bufferView" : 42,
            "componentType" : 5126,
            "count" : 388,
            "type" : "VEC2"
        },
        {
            "bufferView" : 43,
            "componentType" : 5123,
            "count" : 432,
            "type" : "SCALAR"
        }
    ],
    "bufferViews" : [
        {
            "buffer" : 0,
            "byteLength" : 47544,
            "byteOffset" : 0
        },
        {
            "buffer" : 0,
            "byteLength" : 47544,
            "byteOffset" : 47544
        },
        {
            "buffer" : 0,
            "byteLength" : 31696,
            "byteOffset" : 95088
        },
        {
            "buffer" : 0,
            "byteLength" : 15564,
            "byteOffset" : 126784
        },
        {
            "buffer" : 0,
            "byteLength" : 2916,
            "byteOffset" : 142348
        },
        {
            "buffer" : 0,
            "byteLength" : 2916,
            "byteOffset" : 145264
        },
        {
            "buffer" : 0,
            "byteLength" : 1944,
            "byteOffset" : 148180
        },
        {
            "buffer" : 0,
            "byteLength" : 936,
            "byteOffset" : 150124
        },
        {
            "buffer" : 0,
            "byteLength" : 25428,
            "byteOffset" : 151060
        },
        {
            "buffer" : 0,
            "byteLength" : 25428,
            "byteOffset" : 176488
        },
        {
            "buffer" : 0,
            "byteLength" : 16952,
            "byteOffset" : 201916
        },
        {
            "buffer" : 0,
            "byteLength" : 4656,
            "byteOffset" : 218868
        },
        {
            "buffer" : 0,
            "byteLength" : 45720,
            "byteOffset" : 223524
        },
        {
            "buffer" : 0,
            "byteLength" : 45720,
            "byteOffset" : 269244
        },
        {
            "buffer" : 0,
            "byteLength" : 30480,
            "byteOffset" : 314964
        },
        {
            "buffer" : 0,
            "byteLength" : 11232,
            "byteOffset" : 345444
        },
        {
            "buffer" : 0,
            "byteLength" : 720,
            "byteOffset" : 356676
        },
        {
            "buffer" : 0,
            "byteLength" : 720,
            "byteOffset" : 357396
        },
        {
            "buffer" : 0,
            "byteLength" : 480,
            "byteOffset" : 358116
        },
        {
            "buffer" : 0,
            "byteLength" : 144,
            "byteOffset" : 358596
        },
        {
            "buffer" : 0,
            "byteLength" : 2880,
            "byteOffset" : 358740
        },
        {
            "buffer" : 0,
            "byteLength" : 2880,
            "byteOffset" : 361620
        },
        {
            "buffer" : 0,
            "byteLength" : 1920,
            "byteOffset" : 364500
        },
        {
            "buffer" : 0,
            "byteLength" : 504,
            "byteOffset" : 366420
        },
        {
            "buffer" : 0,
            "byteLength" : 5280,
            "byteOffset" : 366924
        },
        {
            "buffer" : 0,
            "byteLength" : 5280,
            "byteOffset" : 372204
        },
        {
            "buffer" : 0,
            "byteLength" : 3520,
            "byteOffset" : 377484
        },
        {
            "buffer" : 0,
            "byteLength" : 1800,
            "byteOffset" : 381004
        },
        {
            "buffer" : 0,
            "byteLength" : 2880,
            "byteOffset" : 382804
        },
        {
            "buffer" : 0,
            "byteLength" : 2880,
            "byteOffset" : 385684
        },
        {
            "buffer" : 0,
            "byteLength" : 1920,
            "byteOffset" : 388564
        },
        {
            "buffer" : 0,
            "byteLength" : 480,
            "byteOffset" : 390484
        },
        {
            "buffer" : 0,
            "byteLength" : 113184,
            "byteOffset" : 390964
        },
        {
            "buffer" : 0,
            "byteLength" : 113184,
            "byteOffset" : 504148
        },
        {
            "buffer" : 0,
            "byteLength" : 75456,
            "byteOffset" : 617332
        },
        {
            "buffer" : 0,
            "byteLength" : 34860,
            "byteOffset" : 692788
        },
        {
            "buffer" : 0,
            "byteLength" : 39108,
            "byteOffset" : 727648
        },
        {
            "buffer" : 0,
            "byteLength" : 39108,
            "byteOffset" : 766756
        },
        {
            "buffer" : 0,
            "byteLength" : 26072,
            "byteOffset" : 805864
        },
        {
            "buffer" : 0,
            "byteLength" : 6528,
            "byteOffset" : 831936
        },
        {
            "buffer" : 0,
            "byteLength" : 4656,
            "byteOffset" : 838464
        },
        {
            "buffer" : 0,
            "byteLength" : 4656,
            "byteOffset" : 843120
        },
        {
            "buffer" : 0,
            "byteLength" : 3104,
            "byteOffset" : 847776
        },
        {
            "buffer" : 0,
            "byteLength" : 864,
            "byteOffset" : 850880
        }
    ],
    "samplers" : [
        {
            "magFilter" : 9729,
            "minFilter" : 9987
        }
    ],
    "buffers" : [
        {
            "byteLength" : 851744,
            "uri" : "shell-with-deco5.bin"
        }
    ]
}
