{
    "asset" : {
        "generator" : "Khronos glTF Blender I/O v1.7.33",
        "version" : "2.0"
    },
    "scene" : 0,
    "scenes" : [
        {
            "name" : "Scene",
            "nodes" : [
                0
            ]
        }
    ],
    "nodes" : [
        {
            "mesh" : 0,
            "name" : "shell",
            "rotation" : [
                -0.7071068286895752,
                0,
                0,
                0.7071067094802856
            ],
            "translation" : [
                -11.574225425720215,
                0,
                -10.337401390075684
            ]
        }
    ],
    "materials" : [
        {
            "doubleSided" : true,
            "name" : "01 - Default",
            "normalTexture" : {
                "index" : 0
            },
            "pbrMetallicRoughness" : {
                "baseColorTexture" : {
                    "index" : 1
                },
                "metallicFactor" : 0.9291338920593262,
                "roughnessFactor" : 0.9338582754135132
            }
        },
        {
            "doubleSided" : true,
            "name" : "03 - Default",
            "normalTexture" : {
                "index" : 2
            },
            "pbrMetallicRoughness" : {
                "baseColorTexture" : {
                    "index" : 3
                },
                "metallicFactor" : 0.6377953290939331,
                "roughnessFactor" : 0.49637389183044434
            }
        },
        {
            "doubleSided" : true,
            "name" : "02 - Default",
            "pbrMetallicRoughness" : {
                "baseColorTexture" : {
                    "index" : 4
                }
            }
        }
    ],
    "meshes" : [
        {
            "name" : "Mesh",
            "primitives" : [
                {
                    "attributes" : {
                        "POSITION" : 0,
                        "NORMAL" : 1,
                        "TEXCOORD_0" : 2
                    },
                    "indices" : 3,
                    "material" : 0
                },
                {
                    "attributes" : {
                        "POSITION" : 4,
                        "NORMAL" : 5,
                        "TEXCOORD_0" : 6
                    },
                    "indices" : 7,
                    "material" : 1
                },
                {
                    "attributes" : {
                        "POSITION" : 8,
                        "NORMAL" : 9,
                        "TEXCOORD_0" : 10
                    },
                    "indices" : 11,
                    "material" : 2
                }
            ]
        }
    ],
    "textures" : [
        {
            "sampler" : 0,
            "source" : 0
        },
        {
            "sampler" : 0,
            "source" : 1
        },
        {
            "sampler" : 0,
            "source" : 2
        },
        {
            "sampler" : 0,
            "source" : 3
        },
        {
            "sampler" : 0,
            "source" : 4
        }
    ],
    "images" : [
        {
            "mimeType" : "image/png",
            "name" : "AdvancedFloorModularWhite_glossiness",
            "uri" : "AdvancedFloorModularWhite_glossiness.png"
        },
        {
            "mimeType" : "image/png",
            "name" : "AdvancedFloorModularWhite_albedo",
            "uri" : "AdvancedFloorModularWhite_albedo.png"
        },
        {
            "mimeType" : "image/png",
            "name" : "MetalSciFiDiamondFloor_height",
            "uri" : "MetalSciFiDiamondFloor_height.png"
        },
        {
            "mimeType" : "image/png",
            "name" : "MetalSciFiDiamondFloor_albedo",
            "uri" : "MetalSciFiDiamondFloor_albedo.png"
        },
        {
            "mimeType" : "image/png",
            "name" : "PolishedAluminiumSheetMetalStained_glossiness",
            "uri" : "PolishedAluminiumSheetMetalStained_glossiness.png"
        }
    ],
    "accessors" : [
        {
            "bufferView" : 0,
            "componentType" : 5126,
            "count" : 1145,
            "max" : [
                15.094136238098145,
                12.150464057922363,
                8.819297790527344
            ],
            "min" : [
                -11.997090339660645,
                -13.375017166137695,
                -0.01385603379458189
            ],
            "type" : "VEC3"
        },
        {
            "bufferView" : 1,
            "componentType" : 5126,
            "count" : 1145,
            "type" : "VEC3"
        },
        {
            "bufferView" : 2,
            "componentType" : 5126,
            "count" : 1145,
            "type" : "VEC2"
        },
        {
            "bufferView" : 3,
            "componentType" : 5123,
            "count" : 1197,
            "type" : "SCALAR"
        },
        {
            "bufferView" : 4,
            "componentType" : 5126,
            "count" : 18,
            "max" : [
                13.601664543151855,
                -13.373078346252441,
                -0.00931164063513279
            ],
            "min" : [
                -10.5423002243042,
                -19.501293182373047,
                -2.5699398517608643
            ],
            "type" : "VEC3"
        },
        {
            "bufferView" : 5,
            "componentType" : 5126,
            "count" : 18,
            "type" : "VEC3"
        },
        {
            "bufferView" : 6,
            "componentType" : 5126,
            "count" : 18,
            "type" : "VEC2"
        },
        {
            "bufferView" : 7,
            "componentType" : 5123,
            "count" : 18,
            "type" : "SCALAR"
        },
        {
            "bufferView" : 8,
            "componentType" : 5126,
            "count" : 254,
            "max" : [
                15.474695205688477,
                12.532390594482422,
                0.0002066865999950096
            ],
            "min" : [
                -12.377649307250977,
                -19.501293182373047,
                -2.5699398517608643
            ],
            "type" : "VEC3"
        },
        {
            "bufferView" : 9,
            "componentType" : 5126,
            "count" : 254,
            "type" : "VEC3"
        },
        {
            "bufferView" : 10,
            "componentType" : 5126,
            "count" : 254,
            "type" : "VEC2"
        },
        {
            "bufferView" : 11,
            "componentType" : 5123,
            "count" : 288,
            "type" : "SCALAR"
        }
    ],
    "bufferViews" : [
        {
            "buffer" : 0,
            "byteLength" : 13740,
            "byteOffset" : 0
        },
        {
            "buffer" : 0,
            "byteLength" : 13740,
            "byteOffset" : 13740
        },
        {
            "buffer" : 0,
            "byteLength" : 9160,
            "byteOffset" : 27480
        },
        {
            "buffer" : 0,
            "byteLength" : 2394,
            "byteOffset" : 36640
        },
        {
            "buffer" : 0,
            "byteLength" : 216,
            "byteOffset" : 39036
        },
        {
            "buffer" : 0,
            "byteLength" : 216,
            "byteOffset" : 39252
        },
        {
            "buffer" : 0,
            "byteLength" : 144,
            "byteOffset" : 39468
        },
        {
            "buffer" : 0,
            "byteLength" : 36,
            "byteOffset" : 39612
        },
        {
            "buffer" : 0,
            "byteLength" : 3048,
            "byteOffset" : 39648
        },
        {
            "buffer" : 0,
            "byteLength" : 3048,
            "byteOffset" : 42696
        },
        {
            "buffer" : 0,
            "byteLength" : 2032,
            "byteOffset" : 45744
        },
        {
            "buffer" : 0,
            "byteLength" : 576,
            "byteOffset" : 47776
        }
    ],
    "samplers" : [
        {
            "magFilter" : 9729,
            "minFilter" : 9987
        }
    ],
    "buffers" : [
        {
            "byteLength" : 48352,
            "uri" : "shell.bin"
        }
    ]
}
